<?xml version="1.0" encoding="utf-8"?>
<!-- Generator: Adobe Illustrator 21.1.0, SVG Export Plug-In . SVG Version: 6.00 Build 0)  -->
<svg version="1.1" id="Layer_1" xmlns="http://www.w3.org/2000/svg" xmlns:xlink="http://www.w3.org/1999/xlink" x="0px" y="0px"
	 viewBox="0 0 449.1 421.1" style="enable-background:new 0 0 449.1 421.1;" xml:space="preserve">
<style type="text/css">
	.st0{fill:#F05F41;}
</style>
<path class="st0" d="M375.6,18H73.4c-30.2,0-55,24.7-55,55v275.1c0,30.3,24.8,55,55,55h302.2c30.3,0,55-24.8,55-55V73
	C430.6,42.8,405.9,18,375.6,18z M201.7,288.2c-1.7,3.5-3.2,6.6-5,10.2c-6.2,2.9-12.7,6.2-21,6.1c-34.7-0.5-69.5-0.2-104.2-0.2
	c-5.9,0-11.8,0-19.1,0c-4.5-6.2-9.5-13.1-14.4-19.8c0-16.4,0-32.7,0-50.7c8.5-0.2,17-0.4,25.6-0.5c8.8-0.1,17.5,0,27.1,0
	c0,7.2,0,13.7,0,21.2c21,0,41.3,0,62.3,0c0-50.8,0-101.6,0-153.4c16.5,0,32.3,0,48.8,0C201.7,163.6,201.7,226.2,201.7,288.2z
	 M411.1,263.9c-0.3,22.3-18.1,40.3-40.5,40.4c-48.1,0.1-96.1,0-145.1,0c0-47.3,0-94.3,0-141.7c15.7,0,31,0,47.1,0
	c0,30.3,0,60.4,0,92.5c13,0.6,25.3,0.2,37.6,0.3c12.5,0.1,24.9,0,38.2,0c-22.4-36.1-44.3-71.2-66.5-106.9c-20.2,0-37.9,0-56.5,0
	c0-16.1,0-31.9,0-48.2c27,0,53.6,0,78.6,0c19.3,3.2,24.3,20.4,34.1,31.8c13,15.2,21.6,34,33.7,50.2c13.8,18.5,23.9,38.9,34.9,58.9
	c1.3,2.4,2.3,5,4.5,9.7C411.1,253.6,411.2,258.7,411.1,263.9z"/>
</svg>
